<svg xmlns="http://www.w3.org/2000/svg" width="2048" height="2048"><path d="M1022.296 194.75c-5.005 7.739-22.68 38.416-45.66 79.25-4.179 7.425-8.032 14.161-8.561 14.969-1.258 1.917-17.101 3.287-22.321 1.93-2.873-.747-4.732-2.304-7.983-6.686-6.462-8.714-14.05-17.697-24.254-28.713-5.094-5.5-14.126-16.019-20.072-23.377C881.032 216.764 867.356 202 865.541 202c-2.487 0-13.264 29.641-31.089 85.5-9.369 29.364-10.199 30.652-21.239 32.956-7.136 1.489-9.335.827-19.213-5.784-9.633-6.447-36.321-26.56-50.627-38.154C720.119 257.672 709.729 250 707.461 250c-1.483 0-1.639.849-4.981 27-1.441 11.275-4.147 32.2-6.014 46.5-1.867 14.3-3.919 30.523-4.561 36.052l-1.166 10.052-7.12 3.948c-9.696 5.377-11.258 5.738-16.944 3.91-2.654-.854-25.154-11.704-50-24.111-45.267-22.606-54.464-26.896-55.481-25.879-.957.958 2.738 55.591 6.939 102.605 1.182 13.231 1.157 13.689-.991 18-2.48 4.978-13.106 13.923-16.538 13.923-1.165 0-3.689-.467-5.611-1.038-3.264-.97-20.874-5.57-51.493-13.453-32.298-8.316-45.479-11.785-51.768-13.624-3.723-1.09-7.176-1.729-7.674-1.421-1.133.701 9.537 41.757 18.461 71.036 6.025 19.766 9.502 33.872 10.131 41.096l.617 7.095-4.383 5.462c-6.164 7.679-8.618 9.357-13.384 9.153-3.655-.157-38.422-2.915-66.361-5.263-21.142-1.777-48.775-2.441-49.548-1.19-.852 1.379 6.073 17.142 15.529 35.345 17.953 34.558 35.879 71.083 35.87 73.084-.012 2.878-3.931 11.112-7.766 16.318-2.777 3.771-3.49 4.154-8.872 4.767-12.097 1.378-106.967 13.698-109.602 14.233-1.513.307-2.75 1.128-2.75 1.824 0 3.081 10.929 18.023 31.506 43.076 4.97 6.05 9.701 11.966 10.515 13.147 1.348 1.958 12.777 17.015 20.381 26.853 1.7 2.2 4.33 5.478 5.845 7.285 3.282 3.915 3.659 9.802 1.165 18.198-2.423 8.16-4.963 10.018-20.412 14.928-27.257 8.663-65.815 21.5-77.27 25.727-14.529 5.36-19.73 7.965-19.73 9.882 0 .814.349 1.48.776 1.48 1.637 0 19.112 14.66 34.51 28.952 3.231 2.999 6.851 6.294 8.044 7.323 1.194 1.028 5.545 5.116 9.67 9.085 9.541 9.179 22.839 20.787 30.802 26.889l6.198 4.749v6.058c0 8.983-1.715 14.513-5.657 18.234-3.672 3.468-4.21 3.792-27.343 16.475-8.525 4.674-22.025 12.406-30 17.182-21.419 12.827-35.024 20.683-39.25 22.665-2.062.967-3.75 2.476-3.75 3.354 0 1.602 9.965 8.21 29.5 19.562 12.057 7.006 16.023 9.239 47.662 26.838 13.565 7.545 25.189 14.352 25.832 15.126 1.713 2.065 3.433 13.452 2.643 17.508-.374 1.925-1.513 4.583-2.531 5.906l-1.85 2.406-126.022-.227c-119.732-.216-140.691.086-140.023 2.016.159.459 31.114 31.933 68.789 69.942 37.675 38.008 68.629 69.461 68.788 69.894.738 2.026-20.138 24.115-46.336 49.027-68.773 65.399-92.532 89.48-90.895 92.128.331.536 49.501.908 119.88.908 94.255 0 119.528.263 120.317 1.25.55.688 4.26 7.55 8.246 15.25 3.985 7.7 10.059 19.4 13.498 26 3.438 6.6 11.54 22.35 18.004 35 41.098 80.424 41.675 81.498 43.799 81.499 3.148.002 20.268-7.791 51.687-23.526 16.782-8.404 34.787-17.08 40.012-19.28 10.908-4.593 23.715-8.811 24.467-8.06.281.282-.168 2.955-.999 5.94-.83 2.985-3.292 12.177-5.469 20.427-4.955 18.77-10.295 38.791-17.828 66.84-4.611 17.166-5.576 21.951-4.508 22.361 2.148.824 13.299-1.565 33.837-7.249 10.45-2.892 28.225-7.807 39.5-10.922 11.275-3.115 25.327-7 31.227-8.635 12.392-3.432 12.507-3.407 23.052 4.999l5.779 4.606-.581 12.5c-.32 6.875-1.702 29.825-3.071 51-3.539 54.749-3.769 59-3.182 59 2.904 0 35.774-15.985 81.776-39.768 17.971-9.291 24.578-11.686 30.167-10.936 5.15.69 14.624 6.443 16.478 10.005 1.678 3.221 7.023 38.781 10.861 72.256 3.878 33.812 5.398 44.747 6.355 45.704 1.046 1.046 18.175-10.341 31.139-20.7 5.225-4.175 15.572-12.422 22.992-18.326 7.421-5.904 17.69-14.246 22.819-18.537 5.13-4.291 11.58-9.188 14.333-10.882 4.483-2.758 5.605-3.026 10.733-2.561 4.051.368 7.242 1.452 10.91 3.709 5.997 3.69 9.156 9.351 13.693 24.536 1.478 4.95 5.313 17.1 8.52 27 3.208 9.9 7.24 22.5 8.959 28 6.777 21.674 12.441 35.5 14.542 35.5 1.797 0 15.197-14.371 30.117-32.301 12.82-15.405 18.475-21.941 32.882-38.008 4.4-4.907 9.35-10.664 11-12.794 5.366-6.928 6.228-7.22 17.651-5.977 10.383 1.13 11.849 1.52 11.849 3.159 0 .528 1.049 2.639 2.332 4.691 1.282 2.051 3.682 6.205 5.332 9.23 1.651 3.025 6.961 12.475 11.802 21 4.84 8.525 10.181 17.975 11.869 21 12.295 22.037 27.446 46 29.084 46 .675 0 3.739-4.388 6.809-9.75a55928.22 55928.22 0 0122.176-38.659c9.128-15.9 16.596-29.047 16.596-29.215 0-.168 2.468-4.376 5.485-9.351 3.017-4.975 6.373-10.787 7.459-12.914 1.932-3.789 2.114-3.883 8.765-4.514 3.735-.354 8.864-.892 11.397-1.195 4.585-.547 4.626-.525 8.84 4.774 2.329 2.928 7.5 8.924 11.492 13.324 3.992 4.4 8.788 9.8 10.658 12 1.871 2.2 3.626 4.225 3.902 4.5.276.275 5.214 6.125 10.972 13 5.759 6.875 12.101 14.3 14.095 16.5l9.51 10.492c7.45 8.217 14.628 14.969 15.936 14.991.556.009 4.003-8.871 7.66-19.733 12.537-37.237 17.685-52.77 22.786-68.75 7.182-22.502 8.282-24.434 15.613-27.4 9.22-3.731 13.95-3.782 19.93-.218 5.263 3.137 25.238 18.51 50.181 38.618 17.877 14.413 20.302 16.328 27.916 22.056 5.563 4.186 13.453 8.727 14.077 8.103.471-.471 3.482-23.116 12.518-94.159 2.363-18.577 3.582-25.328 4.744-26.277.86-.702 5.146-3.117 9.524-5.366l7.959-4.09 5.06 1.595c4.884 1.539 13.764 5.918 66.521 32.798 25.507 12.996 33.982 16.84 37.133 16.84 1.519 0 1.867-.764 1.867-4.097 0-3.708-5.072-87.471-6.527-107.805l-.602-8.402 5.636-5.329c3.402-3.218 7.253-5.814 9.719-6.553 4.626-1.386 5.596-1.171 51.274 11.351 37.06 10.16 63.277 16.835 66.119 16.835 1.922 0 2.397-.413 2.011-1.75-.278-.963-5.977-22.45-12.665-47.75-6.688-25.3-13.453-50.7-15.034-56.445-1.58-5.745-2.773-10.546-2.65-10.669.123-.123 4.047 1.018 8.721 2.536 11.213 3.642 28.523 11.495 61.998 28.125 31.08 15.441 42.685 20.799 45.882 21.186 2.426.294 1.02 2.871 38.853-71.233a43719.14 43719.14 0 0130.691-60c6.912-13.475 12.824-25.288 13.138-26.25.539-1.651 6.956-1.762 113.753-1.969 144.7-.279 128.218.05 126.775-2.531-2.041-3.649-17.294-19.442-41.22-42.679-30.085-29.219-81.241-80.201-88.615-88.316-7.168-7.886-7.429-8.343-6.002-10.5.82-1.24 31.964-32.72 69.209-69.954 42.904-42.893 67.449-68.132 66.987-68.881-.558-.902-30.812-1.091-127.841-.801-69.91.21-130.124.01-133.807-.443-6.549-.806-6.723-.903-7.882-4.415-1.4-4.241-.648-17.68 1.108-19.796 2.273-2.739 20.201-13.402 52.971-31.503 6.325-3.494 11.725-6.603 12-6.908.594-.658.829-.789 18.05-10.068 14.36-7.737 20.95-12.307 20.95-14.529 0-.757-3.037-2.903-6.75-4.771-3.713-1.867-12.375-6.779-19.25-10.915-15.461-9.301-44.16-25.67-57.5-32.795-19.425-10.375-21.723-13.153-22.311-26.976l-.362-8.5 5.837-4.122c6.397-4.519 15.035-11.989 25.836-22.345 7.299-6.998 13.44-12.44 22.587-20.017 2.977-2.466 8.113-6.993 11.413-10.061 3.3-3.068 10.162-9.094 15.25-13.392 8.561-7.232 11.538-11.563 7.949-11.563-.715 0-8.477-2.426-17.25-5.39-28.073-9.488-85.861-29.33-88.505-30.389-7.728-3.095-12.613-11.908-11.725-21.15.556-5.783 2.873-9.208 23.849-35.246 19.737-24.501 29.845-37.664 39.368-51.266 7.079-10.113 8.781-13.559 6.695-13.559-1.847 0-56.848-7.07-80.631-10.365-13.75-1.905-27.354-3.768-30.231-4.14-6.936-.898-9.265-2.946-13.806-12.135l-3.809-7.709 1.772-5.075c.975-2.792 12.806-27.196 26.291-54.231 14.994-30.059 24.219-49.639 23.748-50.402-1.181-1.911-35.229-.452-79.965 3.428-20.9 1.812-38.927 2.964-40.06 2.559-2.497-.892-11.41-10.033-13.304-13.644-.905-1.724-1.154-4.149-.741-7.193.657-4.834 5.555-23.098 11.156-41.593 10.032-33.133 16.715-57.931 17.99-66.75.85-5.885 1.477-5.836-17.041-1.326-20.987 5.112-59.144 15.238-60.441 16.04-.394.243-4.956 1.579-10.138 2.967-5.182 1.389-12.971 3.66-17.31 5.047-4.339 1.387-8.884 2.522-10.101 2.522-3.078 0-14.994-8.825-17.134-12.689-1.696-3.064-1.675-4.371.511-33 4.605-60.322 6.115-89.311 4.65-89.311-2.071 0-17.764 7.488-58.804 28.058-28.449 14.26-48.904 23.942-50.579 23.942-1.547 0-6.366-2.025-10.709-4.5s-8.163-4.5-8.488-4.5c-.326 0-1.345-6.413-2.265-14.25-5.891-50.178-13.731-105.75-14.919-105.75-2.647 0-27.089 17.713-49.273 35.708a626.202 626.202 0 01-12.5 9.816c-3.575 2.721-10.55 8.363-15.5 12.537-12.905 10.882-16.566 13.107-21.684 13.178-5.666.078-14.786-2.631-17.563-5.218-1.585-1.476-6.771-15.952-18.375-51.289-15.137-46.095-21.193-62.732-22.833-62.732-1.71 0-39.223 42.153-60.873 68.403-16.857 20.438-20.058 22.561-31.886 21.143-9.61-1.153-9.688-1.203-14.376-9.286a3651.113 3651.113 0 00-6.802-11.682 606.118 606.118 0 01-4.915-8.578c-1.387-2.475-6.344-11.025-11.016-19a4360.87 4360.87 0 01-13.958-24c-12.233-21.272-19.46-33-20.337-33-.51 0-3.473 3.938-6.586 8.75m5.556 35.976c-3.599 4.253-19.673 31.241-28.511 47.867l-4.302 8.094 17.231.653c19.494.74 50.73.88 50.73.229 0-.237-3.825-7.057-8.5-15.156s-8.5-14.822-8.5-14.941c0-.507-15.193-27.043-15.885-27.746-.419-.425-1.438.025-2.263 1m135.642 37.712c-12.097 13.563-22.126 25.032-22.286 25.488-.471 1.333 1.985 1.949 28.292 7.09 30.783 6.015 35.891 6.915 36.404 6.409.222-.22-4.281-14.63-10.006-32.023l-10.409-31.623-21.995 24.659M872.481 247.25c-.867 2.983-6.314 17.713-7.489 20.25-2.01 4.344-10.785 29.303-12.035 34.232-.729 2.878-1.071 5.487-.76 5.799.312.311 6.357-.377 13.435-1.53 27.451-4.47 51.368-10.049 51.368-11.982 0-2.03-41.232-49.019-43.013-49.019-.469 0-1.146 1.012-1.506 2.25m-149.921 44c-.208.688-2.018 14.525-4.022 30.75-2.004 16.225-3.868 30.569-4.142 31.876-.41 1.959-.181 2.26 1.303 1.713 4.47-1.65 60.847-24.018 61.222-24.291 1.269-.924-21.988-19.533-45.678-36.548-7.035-5.053-8.086-5.477-8.683-3.5m599.94 6.442a3174.858 3174.858 0 01-19.505 14.831c-12.463 9.383-21.995 17.345-21.995 18.375 0 .453 2.362 1.755 5.25 2.893 2.888 1.137 16.927 6.824 31.2 12.638 14.272 5.814 26.057 10.571 26.187 10.571.131 0 .049-1.462-.182-3.25-7.835-60.782-8.311-63.762-10.18-63.741-.426.004-5.275 3.462-10.775 7.683M1011 309.678c-180.229 4.389-352.636 76.609-480.366 201.221a4932.095 4932.095 0 01-12 11.685c-8.125 7.766-34.858 37.858-46.134 51.931-4.4 5.492-8.27 10.21-8.601 10.485-2.668 2.221-35.439 48.759-41.547 59-1.148 1.925-5.083 8.357-8.745 14.294-14.135 22.914-31.887 57.633-43.568 85.206-3.961 9.35-7.593 17.9-8.07 19-8.676 19.989-20.95 58.114-28.493 88.5-21.913 88.276-26.997 177.328-15.387 269.5 4.108 32.611 9.474 60.479 17.906 93 7.472 28.818 12.744 45.177 15.916 49.382l1.597 2.117 11.996-4.585c6.598-2.522 12.31-4.884 12.695-5.249.384-.366-2.613-12.143-6.661-26.171-8.98-31.116-12.821-45.553-15.43-57.994-10.477-49.948-15.108-94.399-15.108-145 0-43.621 3.44-81.731 11.103-123 18.66-100.493 59.302-194.619 121.977-282.5 23.444-32.873 57.102-70.544 87.335-97.752 9.931-8.936 20.537-18.517 23.57-21.289 38.778-35.45 119.132-85.424 173.515-107.913 4.95-2.047 10.35-4.324 12-5.06 4.913-2.192 26.105-9.93 39.477-14.414 106.925-35.86 228.509-44.153 344.626-23.508 73.98 13.154 144.435 38.435 207.583 74.486 69.655 39.765 121.64 80.444 170.542 133.45 9.865 10.693 14.877 16.443 28.333 32.5 24.946 29.77 47.133 61.882 66.672 96.5 36.314 64.34 62.88 137.15 77.797 213.224 13.801 70.382 15.204 153.162 3.895 229.776-4.483 30.365-13.389 69.105-22.417 97.5-6.21 19.533-8.343 27.025-7.824 27.476.644.56 24.783 9.524 25.646 9.524.493 0 2.055-2.588 3.472-5.75 14.068-31.418 32.824-126.502 36.764-186.377 1.597-24.266.719-90.121-1.492-111.873-4.785-47.075-14.003-94.29-27.234-139.5-3.601-12.305-10.794-34.429-12.355-38-.481-1.1-2.522-6.5-4.536-12-12.618-34.458-37.26-84.767-57.797-118-54.177-87.667-125.379-162.808-208.152-219.667-42.08-28.905-96.335-57.457-143.145-75.331-79.682-30.425-152.44-45.319-236.855-48.487-14.3-.537-27.35-.89-29-.785-1.65.106-7.725.307-13.5.448m36.75 53.017c-12.202.321-13.75.555-13.752 2.083-.002.947 1.305 5.997 2.904 11.222 7.283 23.802 8.527 28.286 11.228 40.5 3.235 14.622 5.566 22.422 7.238 24.213 2.002 2.144 29.312-9.74 37.097-16.143 9.523-7.833 15.139-14.243 18.386-20.985 3.16-6.561 3.313-7.392 2.99-16.186-.32-8.707-.523-9.465-3.341-12.461-4.032-4.286-13.953-8.936-19.068-8.937-2.238-.001-6.288-.647-9-1.437-6.076-1.769-16.705-2.342-34.682-1.869m417.232 3.703c-18.332 8.005-51.982 25.269-51.982 26.669 0 .412 7.313 5.668 16.25 11.679 8.938 6.012 21.425 14.43 27.75 18.708l11.5 7.779 1.179-16.366c2.552-35.435 3.509-51.012 3.155-51.366-.204-.204-3.737 1.1-7.852 2.897m-879.622 3.24c.355 3.224 1.085 14.637 1.623 25.362 1.17 23.333 2.063 35 2.679 35 2.584 0 49.251-30.484 54.12-35.354 1.348-1.348-1.529-3.022-26.682-15.526-15.507-7.708-29.137-14.314-30.289-14.68-2.01-.638-2.069-.427-1.451 5.198m324.273-1.313c-1.128 4.494 4.041 41.35 7.406 52.81 3.816 12.992 12.272 19.265 30.278 22.458 12.274 2.176 19.231.083 25.041-7.535 5.676-7.443 7.938-13.502 8.423-22.558.78-14.564-2.645-25.244-12.813-39.953l-5.107-7.387-3.681 1.534c-2.024.844-5.791 2.602-8.372 3.907l-4.691 2.374 4.446 7.762c5.885 10.275 10.131 21.427 10.958 28.785.588 5.221.398 6.326-1.497 8.728-1.872 2.374-2.878 2.747-7.347 2.728-9.392-.04-15.667-4.304-19.851-13.49-2.028-4.454-2.309-6.861-2.621-22.488-.293-14.669-.611-17.702-1.968-18.75-.993-.767-4.79-1.25-9.82-1.25-7.748 0-8.232.128-8.784 2.325m224.603 5.925c.013 1.238-.705 8.55-1.597 16.25-1.611 13.919-3.986 58.487-3.16 59.312.667.667 18.518 5.188 20.484 5.188 1.489 0 1.841-1.407 2.424-9.701.375-5.336.78-9.799.899-9.919.12-.119 1.342-.491 2.716-.825 2.361-.574 2.822.081 8.393 11.919 3.242 6.889 6.259 12.526 6.705 12.526 1.213 0 19.262-8.017 20.284-9.009.504-.49-2.812-5.352-7.718-11.317l-8.601-10.458 3.008-1.246c6.67-2.763 13.719-14.906 14.072-24.242.306-8.067-5.876-15.107-18.645-21.233-8.491-4.073-28.262-9.491-34.644-9.493-4.157-.002-4.642.234-4.62 2.248m-286.706 6.284c-9.244 3.525-13.492 11.857-14.283 28.015-.585 11.973 1.707 22.807 7.183 33.951 7.327 14.91 17.181 20.242 31.748 17.179 9.245-1.944 14.833-5.482 19.309-12.226 9.495-14.304 9.868-27.477 1.241-43.773-3.605-6.81-13.985-16.869-21.79-21.117-6.497-3.536-17.056-4.452-23.408-2.029m212.36 9.91c-.3.3.49 3.585 1.756 7.301 1.266 3.715 2.314 8.724 2.328 11.13l.026 4.375 3.25-.642c8.031-1.586 18.75-10.835 18.75-16.178 0-2.689-3.314-3.995-12.5-4.925-3.3-.334-7.59-.832-9.532-1.107-1.943-.275-3.778-.255-4.078.046m-271.374 9.806l-2.919 12.566c-1.318 5.675-2.652 10.572-2.963 10.883-.312.312-6.465-1.968-13.675-5.066-7.21-3.098-13.689-5.633-14.4-5.633-.71 0-2.251 2.634-3.425 5.853-2.57 7.047-2.556 6.774-.384 7.496.962.32 7.991 4.31 15.619 8.867l13.869 8.284 5.482 10c3.015 5.5 7.722 14.387 10.46 19.75 2.925 5.727 5.592 9.75 6.465 9.75 2.392 0 15.719-6.491 17.315-8.434 1.311-1.596.984-2.708-3.211-10.921-2.569-5.03-7.406-13.766-10.749-19.413l-6.079-10.269 3.54-14.083c1.946-7.746 3.539-14.445 3.539-14.888 0-.955-14.17-6.992-16.411-6.992-.853 0-1.786 1.012-2.073 2.25m432.152 8.42c-5.328 29.126-7.796 44.97-8.347 53.579l-.623 9.748 5.401-.092c2.971-.051 7.651.436 10.401 1.082 6.075 1.428 31.832 6.018 32.114 5.724.586-.61.7-16.395.125-17.324-.372-.601-3.952-1.353-7.957-1.67-4.005-.317-9.671-1.101-12.59-1.742-5.271-1.158-5.304-1.188-4.634-4.32.372-1.735.804-3.298.96-3.473.157-.175 2.661.388 5.565 1.25 5.877 1.745 10.334 2.052 9.469.652-.312-.504-.173-1.966.307-3.25s1.185-4.872 1.565-7.975l.693-5.641-8.059-.713c-7.662-.678-8.058-.832-8.058-3.134 0-3.677 3.644-4.603 13.334-3.388 4.463.559 10.493 1.017 13.402 1.017h5.288l-.616-3.852c-.339-2.118-.715-5.831-.835-8.25-.511-10.27-.304-9.751-4.323-10.788-2.062-.532-11.175-1.903-20.25-3.047-9.075-1.143-17.449-2.336-18.608-2.651-1.95-.528-2.231.095-3.724 8.258m-66.675-5.558c-.004 1.314-.299 5.478-.656 9.255l-.648 6.866 2.405-.709c9.701-2.86 14.833-7.955 12.964-12.871-1.221-3.211-1.757-3.483-8.423-4.266-5.457-.641-5.635-.587-5.642 1.725m-296.684 5.354c-3.85 1.674-4.833 5.412-4.036 15.34.504 6.281.759 6.831 5.071 10.904 3.621 3.422 5.27 4.29 8.147 4.29 7.486 0 13.509-5.493 13.509-12.319 0-8.229-5.362-15.133-14.163-18.239-4.867-1.717-4.523-1.718-8.528.024m452.781 29.523c-6.095 6.401-20.7 23.621-24.606 29.011-2.591 3.575-7.602 9.454-11.137 13.065-7.273 7.43-7.391 8.711-1.063 11.56 2.291 1.031 5.636 2.872 7.434 4.09l3.267 2.215 5.106-6.135c2.808-3.375 6.264-7.885 7.679-10.024 2.364-3.572 2.865-3.845 6.152-3.357 1.968.293 5.716.821 8.328 1.173 2.612.352 4.75.852 4.75 1.11 0 1.255-4.329 17.542-6.138 23.089-1.127 3.457-1.791 6.956-1.477 7.776.72 1.876 7.528 4.828 14.983 6.496 4.836 1.082 5.939 1.061 7.123-.139.77-.78 3.723-10.419 6.562-21.419 2.838-11 6.865-24.5 8.948-30s4.486-12.363 5.34-15.252l1.552-5.252-2.696-1.371c-3.569-1.814-23.384-6.484-31.821-7.5-5.65-.68-6.943-.545-8.286.864m-619.325 10.069c-6.665 4.864-18.465 11.378-31.015 17.122-1.513.692-2.75 1.677-2.75 2.19 0 1.831 30.382 43.371 33.018 45.142 1.479.994 4.214 4.041 6.077 6.772 3.321 4.867 12.318 13.716 13.946 13.716.453 0 1.083-.816 1.4-1.813.316-.997 3.496-3.958 7.067-6.58s6.492-5.369 6.492-6.105c0-.736-1.532-2.285-3.403-3.442-3.454-2.135-10.61-9.447-10.582-10.813.03-1.441 1.526-2.907 6.235-6.111 2.612-1.778 4.75-3.684 4.75-4.237 0-1.484-12.25-18.899-13.294-18.899-.491 0-1.103.788-1.36 1.75-.257.962-3.415 3.699-7.018 6.08l-6.551 4.331-2.974-2.831c-5.75-5.47-5.688-5.692 3.42-12.334 11.909-8.684 15.777-11.947 15.777-13.31 0-.66-2.029-3.672-4.51-6.693-2.48-3.021-4.76-6.281-5.067-7.243-.826-2.591-2.233-2.109-9.658 3.308m623.211 12.623c-3.552 4.045-3.463 4.19 3.524 5.714 2.835.618 3.088.408 4.607-3.819 1.384-3.848 1.407-4.549.169-5.024-3.107-1.192-5.199-.403-8.3 3.129m-324.476.367c-44.043 3.556-90.341 12.522-132.5 25.661-11.935 3.72-36.27 12.375-41.5 14.761-1.65.753-6.6 2.79-11 4.528-22.594 8.922-60.353 29.131-84.5 45.224C603.617 628.785 519.218 743.141 482.516 873c-4.237 14.988-5.18 18.704-9.407 37.03-8.845 38.352-12.982 89.66-11.128 137.998 1.158 30.16 1.828 37.36 5.983 64.241 6.465 41.819 21.922 100.77 26.409 100.718.62-.007 6.977-1.6 14.127-3.539 7.15-1.938 22.225-6.016 33.5-9.061a9790.507 9790.507 0 0027.5-7.461c3.85-1.059 13.975-3.745 22.5-5.97 8.525-2.225 16.947-4.505 18.716-5.067l3.217-1.022.327-123.183c.357-134.171.018-125.987 5.854-141.684 8.219-22.108 28.748-39.443 54.513-46.032 14.402-3.684 27.183-4.029 138.605-3.744l107.733.276.96-2.5a5784.81 5784.81 0 013.475-9c1.383-3.575 8.322-21.8 15.421-40.5 13.248-34.903 26.692-70.142 30.138-79a24481.13 24481.13 0 0017.833-46.05l5.034-13.051 1.589-31.949c.873-17.573 1.59-35.775 1.592-40.45.005-10.876 1.243-15.175 5.581-19.388 6.933-6.733 18.02-6.869 24.057-.294l3.146 3.424 3.439-3.439c9.039-9.039 24.483-4.742 28.223 7.852.989 3.33 1.757 16.101 2.587 43.04l1.18 38.305 20.375 53c49.627 129.097 53.109 137.868 55.028 138.622 1.032.406 45.527.795 98.877.865 135.421.178 142.404.607 161.887 9.931 10.201 4.881 14.738 7.996 22.957 15.759 8.297 7.838 12.832 14.683 16.638 25.112l3.018 8.269v254.848l3.75 1.041c2.063.573 4.537 1.044 5.5 1.047.963.003 1.75.456 1.75 1.006s.943 1 2.095 1c2.997 0 54.795 14.297 71.36 19.696 14.925 4.864 35.64 10.363 36.662 9.732.341-.211.893-2.086 1.225-4.167.333-2.081 3.485-13.229 7.004-24.773 9.828-32.235 14.09-52.108 19.085-88.988 3.387-25.007 4.051-36.696 4.03-71-.025-40.466-1.069-54.014-7.052-91.5-7.598-47.613-23.847-99.894-45.014-144.831-2.417-5.132-4.395-9.555-4.395-9.827 0-.462-3.422-6.379-16.68-28.842l-5.312-9 .013 39.5c.014 40.743.627 48.551 4.38 55.808 2.644 5.113 7.435 9.142 11.676 9.82 2.158.345 3.923 1.045 3.923 1.555 0 1.572-10.15 5.64-17.017 6.821-5.266.905-7.907.83-13.765-.391-17.966-3.746-31.823-16.597-38.399-35.61-5.221-15.094-6.855-28.121-8.217-65.503l-1.239-34-3.672-7.205c-4.188-8.22-9.381-14.265-10.269-11.953-.308.803-1.35 1.228-2.362.963-.996-.26-3.649.465-5.895 1.611-2.247 1.146-4.322 2.084-4.611 2.084-.289 0-1.937-2.796-3.662-6.213-1.724-3.417-4.226-8.03-5.558-10.25l-2.422-4.037 3.117 3.5 3.118 3.5-2.574-4.899c-3.187-6.067-3.213-7.407-.17-8.564 1.321-.503 2.698-1.391 3.059-1.975.361-.584 1.702-1.062 2.981-1.062 1.278 0 5.399-2.105 9.157-4.678 7.295-4.996 14.854-8.322 18.911-8.322 1.369 0 2.489-.355 2.489-.789 0-2.172-32.595-36.281-48.253-50.493-83.872-76.13-183.423-124.612-292.903-142.647-29.828-4.914-46.797-6.247-83.844-6.586-19.525-.179-40.45.075-46.5.563M466.644 472.25c1.375 5.087 3.554 13.3 4.844 18.25 5.307 20.378 9.609 35.93 10.065 36.386.266.267 6.81-5.786 14.541-13.451 7.731-7.664 18.369-18.025 23.64-23.025 5.27-4.999 9.287-9.567 8.926-10.15-.36-.584-5.044-2.438-10.408-4.121C507.267 472.693 468.665 463 465.928 463c-1.66 0-1.61.642.716 9.25M1570 468.598a12104.155 12104.155 0 01-30.78 8.059c-5.653 1.466-10.153 2.985-10 3.376.154.392 10.617 11.336 23.25 24.321 18.258 18.765 23.151 23.287 23.85 22.039.483-.863 2.59-7.942 4.682-15.731 4.113-15.31 11.731-43.075 12.598-45.912.753-2.464-.198-2.309-23.6 3.848m-184.635-1.34c-.624 1.233-6.699 11.48-13.5 22.771-11.443 18.998-20.896 36.605-22.291 41.52-.486 1.713.691 2.811 7.172 6.694 4.265 2.555 8.999 5.197 10.521 5.87 3.368 1.489 2.829 2.135 13.247-15.863 4.218-7.288 8.007-13.25 8.419-13.25.412 0 .398 2.138-.032 4.75-.43 2.612-.809 6.674-.841 9.026l-.06 4.275 3.25-1.651c1.787-.908 6.093-3.664 9.568-6.124 3.475-2.461 6.466-4.317 6.647-4.125.181.192-2.371 4.849-5.672 10.349-7.551 12.583-13.158 24.112-12.521 25.745.269.69 5.311 3.73 11.206 6.755l10.716 5.5 1.653-2.385c2.37-3.419 25.92-48.523 28.893-55.336 1.373-3.147 2.255-6.348 1.961-7.115-.488-1.273-15.056-7.962-20.094-9.226-1.43-.359-4.807 1.099-10.364 4.474-4.534 2.754-8.243 4.582-8.243 4.062 0-.519 1.125-4.826 2.5-9.571s2.5-9.148 2.5-9.785c0-1.219-21.296-19.624-22.691-19.61-.445.004-1.32 1.017-1.944 2.25m-358.142 11.299c-2.217 1.552-2.223 1.647-2.223 32.8 0 32.837.108 33.643 4.5 33.643 4.398 0 4.5-.778 4.5-34.165 0-30.381-.084-31.81-1.934-32.8-2.432-1.301-2.206-1.325-4.843.522M634 486.355c-4.125 4.32-7.88 8.518-8.344 9.329-.584 1.02.614 3.683 3.89 8.645C635.998 514.104 671.197 561 672.08 561c1.758 0 14.504-10.836 16.238-13.804l1.929-3.305-2.965-3.695c-6.948-8.66-32.212-42.344-38.715-51.618L641.5 478.5l-7.5 7.855m451.647 9.895c-.77 1.238-5.342 9-10.161 17.25s-11.452 19.432-14.74 24.849c-5.316 8.76-5.853 10.121-4.854 12.313.907 1.992 1.733 2.404 4.313 2.151 2.946-.289 3.739-1.271 10.34-12.813a2987.66 2987.66 0 0115.302-26.36c4.484-7.623 8.153-14.62 8.153-15.55 0-4.274-6.015-5.599-8.353-1.84m-123.073 1.947c-1.828 2.611-3.345-.27 17.111 32.495 7.963 12.756 15.23 23.349 16.147 23.539.917.19 2.681.164 3.918-.059 4.606-.829 2.993-5.75-7.315-22.308C975.851 505.227 969.174 496 966.482 496c-1.306 0-3.059.986-3.908 2.197M1117 550.135c-42.124 22.137-40.574 21.146-38.428 24.548 2.406 3.814 4.001 3.845 11.099.214 22.709-11.617 47.014-24.351 48.13-25.217.716-.556 1.166-2.398 1-4.095-.531-5.442-4.271-4.661-21.801 4.55m-196.345-5.306c-2.282 2.522-2.071 4.858.595 6.57 10.307 6.619 53.654 27.763 56.153 27.39 2.599-.387 4.246-5.302 2.487-7.421C978.406 569.58 925.722 543 923.662 543c-.744 0-2.097.823-3.007 1.829M366 583.845c0 .464 5.85 13.083 13 28.04 7.15 14.958 13 27.542 13 27.965 0 .422.605 1.595 1.344 2.605 1.236 1.691 1.82 1.208 7.322-6.059 3.289-4.343 7.826-10.636 10.084-13.984 5.745-8.521 21.454-34.546 21.069-34.903-.278-.258-61.273-4.52-64.569-4.512-.687.002-1.25.383-1.25.848m1296 1.26c-6.875.45-17.562 1.105-23.75 1.455-7.039.399-11.25 1.044-11.25 1.724 0 .597 1.638 4.265 3.64 8.151 3.289 6.383 6.997 12.081 21.192 32.565 4.83 6.97 11.055 14 12.396 14 .452 0 2.332-3.263 4.177-7.25 5.186-11.209 13.801-29.183 19.462-40.605 2.823-5.696 5.133-10.533 5.133-10.75 0-.599-16.953-.211-31 .71m-956.5 62.004c-40.098 5.783-75.339 39.068-84.052 79.391-2.089 9.667-2.396 30.344-.579 39 6.56 31.252 25.319 56.341 52.853 70.691 17.23 8.979 32.522 12.401 51.278 11.473 14.294-.708 25.194-3.337 37.321-9.004 12.431-5.81 20.575-11.455 29.729-20.61 43.377-43.376 38.235-114.816-10.928-151.833-21.237-15.99-48.853-22.968-75.622-19.108m621.5-.461c-26.906 4.041-42.492 11.606-59.231 28.75-14.108 14.449-21.889 27.791-26.941 46.194-3.12 11.365-3.152 37.342-.059 48.583 5.031 18.291 13.483 33.102 26.2 45.912 8.698 8.762 16.742 14.433 28.325 19.97 14.034 6.708 21.724 8.29 40.706 8.372 14.263.061 17.644-.241 24.933-2.233 37.981-10.379 65.759-41.017 72.599-80.077 8.312-47.461-19.88-94.993-65.645-110.677-12.053-4.13-30.728-6.32-40.887-4.794m91 33.73c0 .207.685.946 1.523 1.641 1.273 1.057 1.42.995.893-.378-.538-1.401-2.416-2.384-2.416-1.263M348.5 713.533c-4.95.705-19.687 2.56-32.75 4.123-14.78 1.768-23.75 3.254-23.75 3.934 0 1.78 6.728 11.291 19.326 27.318 14.391 18.307 20.74 25.466 21.644 24.399.375-.444 3.429-7.332 6.786-15.307 3.357-7.975 8.88-21.025 12.273-29 3.394-7.975 6.398-15.062 6.678-15.75.279-.687.121-1.193-.35-1.124-.471.069-4.907.702-9.857 1.407m1351.5-.622c0 .502 2.732 7.364 6.071 15.25 3.339 7.887 7.774 18.389 9.856 23.339 2.081 4.95 5.076 12.041 6.655 15.758 1.578 3.717 3.313 6.61 3.854 6.43 2.515-.838 39.564-49.699 39.564-52.178 0-.79-2.427-1.476-6.75-1.907-3.713-.37-18.406-2.232-32.653-4.138-30.062-4.021-26.597-3.689-26.597-2.554m-677.372 31.258c-3.749 12.282-9.431 31.331-12.626 42.331L998.527 826c-3.117 10.725-9.183 30.975-13.481 45a22752.87 22752.87 0 00-12.612 41.292l-4.797 15.792-6.248 4.458-6.247 4.458H811v206h8.931c4.912 0 15.824-.881 24.25-1.958 58.414-7.466 160.903-10.746 251.819-8.058 41.832 1.237 97.622 5.418 134 10.042 8.525 1.084 17.862 1.971 20.75 1.972l5.25.002V937h-154.368l-4.656-4.831c-5.078-5.269-4.753-4.393-18.814-50.669-1.671-5.5-4.62-15.175-6.554-21.5-7.82-25.581-15.894-52.134-19.156-63-1.899-6.325-3.933-12.966-4.52-14.758-.587-1.792-1.275-4.404-1.529-5.803-.254-1.4-3.629-12.533-7.5-24.742a46789.205 46789.205 0 01-8.248-26.028l-1.209-3.83-6.818 22.33m710.656 101.917c.321 1.328 2.421 12.314 4.668 24.414 6.198 33.383 7.282 38.966 7.649 39.385.483.553 5.426-2.704 8.639-5.692 1.506-1.401 3.081-2.209 3.5-1.796.418.412 1.21 3.697 1.76 7.299l1 6.549 7.5-5.794c6.844-5.287 12.051-9.812 35.25-30.629 4.263-3.825 7.75-7.545 7.75-8.267 0-.721-1.687-1.774-3.75-2.34-2.062-.566-11.625-3.804-21.25-7.197-9.625-3.393-24.701-8.581-33.503-11.53-8.801-2.948-16.856-5.688-17.899-6.089-1.617-.62-1.811-.371-1.314 1.687M282 858.808c-14.575 4.813-28.75 9.461-31.5 10.328l-5 1.577 7.553 7.393c4.154 4.067 10.904 10.211 15 13.655 4.096 3.444 11.272 9.663 15.947 13.822 4.675 4.158 9.652 8.171 11.06 8.916l2.56 1.356 4.181-21.178c9.069-45.94 8.863-44.702 7.449-44.649-.413.015-12.675 3.966-27.25 8.78m3 136.831a1702.577 1702.577 0 01-13 7.341l-12.5 6.996c-17.564 9.834-28.5 16.311-28.5 16.88 0 1.732 33.827 21.694 52.5 30.982l6 2.985.274-16.912c.15-9.301.15-24.549 0-33.884l-.274-16.973-4.5 2.585m1483 31.327v33.967l10.75-6.315c5.912-3.473 15.25-9.01 20.75-12.304 5.5-3.294 13.713-8.13 18.25-10.747 4.537-2.616 8.25-5.113 8.25-5.548 0-.435-1.677-1.587-3.726-2.559-2.049-.973-10.937-6.142-19.75-11.489-15.792-9.58-32.552-18.971-33.856-18.971-.367 0-.668 15.285-.668 33.966M382.217 1003c-.551 1.375-2.223 5.538-3.715 9.25l-2.715 6.75h-20.161l2.913 3.041c1.603 1.673 5.062 4.42 7.687 6.104 2.626 1.685 4.774 3.17 4.774 3.299 0 .299-3.684 14.226-4.639 17.537l-.715 2.481 2.927-1.902c1.61-1.047 5.255-3.442 8.101-5.323 6.005-3.968 7.124-3.835 14.089 1.67 4.386 3.467 9.253 6.568 9.226 5.878-.006-.157-1.325-4.493-2.93-9.635-1.606-5.143-2.701-9.92-2.434-10.615.267-.695 1.642-1.791 3.055-2.435 3.253-1.482 11.32-8.053 11.32-9.22 0-.484-4.236-.88-9.413-.88h-9.412l-2.661-7.25c-4.481-12.209-4.139-11.644-5.297-8.75m1292.957 2.232c-1.167 2.347-3.001 6.387-4.074 8.976l-1.951 4.709-8.324.291c-11.59.406-11.462.988 2.425 11.027 1.652 1.195 1.606 1.784-.833 10.599-1.42 5.134-2.33 9.587-2.021 9.895.308.308 3.987-1.755 8.176-4.584 4.188-2.83 7.979-5.145 8.423-5.145.444 0 3.439 1.962 6.656 4.361 5.414 4.036 10.349 7.1 10.349 6.424 0-.157-1.118-3.885-2.485-8.285-1.367-4.4-2.492-8.741-2.5-9.647-.008-.906 3.213-4.506 7.158-8l7.173-6.353-9.836-.5-9.835-.5-2.818-8.397c-1.55-4.619-2.985-8.565-3.189-8.768-.204-.204-1.326 1.549-2.494 3.897m83.881 140.518c-.67 4.263-2.307 12.849-3.637 19.08-3.295 15.44-3.169 18.297 1.18 26.709 1.98 3.829 3.927 7.311 4.327 7.738 1.878 2.002 48.372-13.713 50.433-17.046.664-1.075-48.883-44.231-50.781-44.231-.166 0-.851 3.487-1.522 7.75M293.5 1141.237c-13.906 10.076-46.5 39.423-46.5 41.867 0 .419 1.012 1.067 2.25 1.44 1.238.374 12.074 4.041 24.081 8.15 24.767 8.475 23.056 8.523 28.123-.787 3.744-6.879 4.247-14.114 1.732-24.907-1.089-4.675-2.755-12.888-3.701-18.25-.947-5.362-2.006-9.736-2.353-9.718-.348.017-1.982 1.01-3.632 2.205m754.358 37.513c-2.265 2.476-12.999 16.805-18.655 24.904l-2.203 3.155v58.161c0 36.733-.367 58.848-.997 60.024-.563 1.052-3.38 2.555-6.476 3.455-5.984 1.74-7.951 4.012-6.945 8.022 1.061 4.226 5.021 4.65 40.38 4.326l32.462-.297 1.538-2.741c2.069-3.688.713-5.661-5.66-8.235-8.414-3.399-8.405-3.381-8.084-15.393l.282-10.57 8.793.306c5.821.202 9.286-.103 10.25-.903 1.809-1.501 1.917-8.337.155-9.8-.716-.594-5.329-1.212-10.25-1.372l-8.948-.292-.52-57.5c-.287-31.625-.624-57.612-.75-57.75-.127-.138-5.096-.25-11.043-.25-10.519 0-10.881.075-13.329 2.75m-226.358 9.368c-19.025 2.35-51.375 7.144-54.285 8.044-4.151 1.284-6.527 4.748-5.651 8.238.525 2.09 1.428 2.735 4.525 3.23 8.036 1.285 7.375-4.374 7.71 66.039.164 34.557.018 64.784-.325 67.17-.503 3.499-1.216 4.661-3.685 6-5.4 2.929-7.856 5.549-8.076 8.617-.164 2.276.362 3.238 2.287 4.18 2.514 1.231 5.005.957 53.5-5.869l9-1.267.516-75c.284-41.25.621-75.094.75-75.208.129-.114 2.267-1.399 4.751-2.855 7.194-4.216 8.728-7.903 4.652-11.187-1.722-1.387-5.267-1.417-15.669-.132m410.508 2.361c-2.041 5.368-1.548 10.798 2.557 28.182a1419.012 1419.012 0 014.849 21.5c4.99 23.097 9.719 44.512 11.132 50.403 1.781 7.426 1.824 9.445.204 9.404-.687-.017-5.975-.678-11.75-1.468-14.647-2.004-13.621-2.249-15.019 3.581-.683 2.846-.837 5.41-.35 5.829.478.411 7.38 1.508 15.338 2.437 7.957.93 14.779 2.019 15.159 2.422 1.213 1.284 5.995 22.356 5.678 25.017-.205 1.714-1.796 3.608-4.806 5.722-5.285 3.71-5.985 5.814-2.996 8.997 2.684 2.856 2.427 2.793 24.496 6.012 9.9 1.444 22.95 3.489 29 4.544 14.811 2.583 21.163 2.576 21.988-.023.828-2.608-.775-5.392-4.927-8.559-5.154-3.931-6.516-6.69-9.043-18.32-4.314-19.858-11.267-50.567-16.335-72.159a7833.961 7833.961 0 01-10.164-44c-2.814-12.375-5.338-23.25-5.609-24.167-.54-1.829-3.017-2.308-32.846-6.351-14.76-2-15.432-1.96-16.556.997m109.742 15.566c-1.766 1.064-2.276 4.421-1.127 7.416.343.893 2.338 2.499 4.434 3.568 7.401 3.776 6.945-.933 6.928 71.444-.009 38.683-.395 65.627-.953 66.509-.515.815-3.095 2.165-5.734 3-4.208 1.331-4.835 1.891-5.095 4.549-.607 6.194.998 6.802 38.297 14.515 3.389.701 8.359 1.823 24.25 5.475l2.25.517v-72.454c0-44.111.377-73.446.965-74.991.573-1.508 1.992-2.751 3.5-3.065a2367.7 2367.7 0 014.916-1.017c4.709-.968 3.975-8.274-1.088-10.819-3.274-1.646-12.999-3.997-41.793-10.105-26.701-5.664-27.649-5.809-29.75-4.542M674 1213.476c-12.925 2.925-27.304 6.272-31.953 7.437-8.441 2.117-12.424 4.549-13.62 8.317-.884 2.784 2.258 5.77 6.073 5.77 6.829 0 6.5-3.485 6.5 68.747 0 35.799-.279 65.817-.62 66.706-.341.889-2.598 2.977-5.016 4.64-7.385 5.081-8.918 9.47-4.193 11.999 1.463.782 5.658.157 17.133-2.554a2899.136 2899.136 0 0130.196-6.928l15-3.338.522-74.886c.287-41.187.625-74.926.75-74.976.126-.049 2.928-2.186 6.228-4.748 6.319-4.907 7.274-7.199 4.171-10.007-2.632-2.383-5.081-2.082-31.171 3.821m549.711 7.207c-.269.45-2.134 6.667-4.145 13.817-2.011 7.15-4.308 15.25-5.104 18-3.399 11.737-12.392 43.818-14.997 53.5-4.89 18.172-9.46 25.142-19.029 29.026-2.908 1.18-5.549 2.827-5.869 3.66-1.111 2.895 1.753 6.756 5.941 8.008 5.687 1.7 36.411 4.287 39.041 3.287 5.099-1.938 3.682-7.483-2.898-11.339-6.709-3.933-8.651-6.908-8.651-13.26 0-6.024 2.131-14.365 15.042-58.882 6.962-24.008 6.854-22.99 3.9-36.521-2.146-9.835-2.426-10.64-3.231-9.296m-218.293 14.818a5611.431 5611.431 0 00-19.306 26.999c-5.073 7.15-9.761 13.684-10.418 14.52-1.286 1.637-5.345 7.799-8.034 12.195-2.263 3.701-2.21 11.647.09 13.393 2.012 1.527 9.348 1.692 32.5.732l15.75-.653V1290.688l-17.93.673c-9.862.37-18.143.328-18.401-.094-.44-.717 3.524-6.58 27.121-40.125l9.29-13.206-.29-8.217-.29-8.217-10.082 13.999m468.332 2.579c-.963.561-1.75 2.142-1.75 3.515 0 2.463 1.435 4.118 8.46 9.76l3.554 2.854-.257 67.122-.257 67.121-2.5.737a76.32 76.32 0 01-5.293 1.304c-3.461.702-4.295 2.674-2.729 6.455 1.512 3.649 5.09 5.366 21.022 10.091 6.875 2.039 19.025 5.785 27 8.325 7.975 2.54 15.063 4.622 15.75 4.627.989.007 1.253-15.311 1.265-73.241.009-40.287.39-73.84.847-74.561.457-.721 3.038-1.624 5.735-2.007 4.557-.647 4.924-.912 5.202-3.753.639-6.513-4.781-8.898-55.799-24.557a1905.458 1905.458 0 01-12.571-3.894c-3.822-1.217-5.451-1.196-7.679.102m-913.25 5.18a6490.48 6490.48 0 01-23.717 7.572l-14.716 4.668-1.489 6.488-1.489 6.488 10.956 43.747c6.025 24.061 10.955 44.544 10.955 45.519 0 1.38-2.927 2.764-13.25 6.265l-13.25 4.493-1.255 5c-.69 2.75-1.14 5.482-1 6.071.153.641 6.386-.938 15.496-3.925 8.383-2.749 15.5-4.738 15.817-4.421 1.124 1.124 5.442 18.314 5.442 21.664 0 2.661-.995 4.467-4.562 8.28-3.768 4.03-4.507 5.438-4.25 8.104.242 2.503.834 3.301 2.638 3.557 1.899.269 26.268-6.374 36.174-9.861 4.55-1.601 23.777-6.969 24.964-6.969.641 0 3.328-.93 5.971-2.067 8.343-3.59 8.9-9.823 1.065-11.933-2.181-.587-4.378-1.84-4.882-2.784-.504-.944-3.701-12.516-7.104-25.716-10.936-42.419-27.243-106.915-27.751-109.762-.272-1.519-.779-2.901-1.128-3.071-.349-.17-4.685.997-9.635 2.593m313.225 49.15c-.976.741-2.927 5.339-4.336 10.218-4.971 17.214-13.47 28.922-24.984 34.417l-6.405 3.057V1351.289l6.75-.645c3.712-.355 12.15-1.141 18.75-1.748 6.6-.606 13.8-1.405 16-1.776l4-.674.267-25.757c.172-16.622-.106-26.454-.785-27.723-1.243-2.323-6.511-2.639-9.257-.556m-361.147.697c-.393 1.165-16.685 66.953-23.748 95.893-3.202 13.121-7.715 25.047-11.352 30-1.818 2.475-5.819 6.663-8.891 9.308-5.558 4.783-6.677 7.202-4.387 9.492 2.049 2.049 5.127 1.391 22.481-4.807 19.964-7.131 22.674-8.42 24.369-11.586 2.011-3.759-.345-7.407-4.785-7.407-3.513 0-7.22-1.483-8.5-3.4-2.2-3.296-.279-13.715 10.249-55.566l11.014-43.785-2.476-9.253c-2.621-9.792-3.219-11.131-3.974-8.889m228.698 16.851c-1.211 1.128-2.693 3.961-3.294 6.296-5.409 21.021-14.758 35.203-27.545 41.788-4.642 2.39-4.956 2.801-5.25 6.864-.528 7.289-1.17 7.161 17.996 3.584 9.543-1.781 19.712-3.563 22.599-3.96l5.249-.722-.265-27.654-.266-27.654-3.512-.296c-2.456-.207-4.173.32-5.712 1.754m709.769 30.488c-.739.89-2.435 4.866-3.771 8.836-1.335 3.97-3.362 8.793-4.505 10.718-4.968 8.369-14.197 14-22.947 14H1416v5.525c0 6.555-1.565 5.67 20.126 11.373 8.456 2.223 16.946 4.506 18.867 5.072 7.647 2.254 7.134 4.209 6.803-25.936-.324-29.518-.296-29.384-6.365-30.598-2.151-.43-3.437-.134-4.386 1.01m130.055 47.804c-3.068 8.845-5.094 12.664-9.1 17.146-4.601 5.149-10.075 7.555-17.25 7.582l-5.75.022v5.465c0 4.306.395 5.676 1.861 6.461 1.872 1.001 31.956 11.941 39.889 14.505l4.25 1.373v-25.855c0-27.407-.362-29.882-4.657-31.839-5.371-2.447-6.908-1.593-9.243 5.14m-589.6 6.423c-44.262 1-110.82 5.948-145.5 10.818-30.386 4.266-41.789 6.011-66 10.099-73.416 12.397-133 25.721-133 29.741 0 3.728 31.469 29.154 63.5 51.305 66.045 45.675 149.788 78.756 230 90.858 109.893 16.58 215.167 3.139 315-40.218 16.098-6.992 47.651-22.996 61-30.94 33.267-19.797 84.469-57.741 92.986-68.906 1.439-1.887 2.48-3.464 2.315-3.507a89.445 89.445 0 00-1.801-.388c-.825-.171-8.25-1.914-16.5-3.874-98.569-23.407-155.341-32.682-248.5-40.597-45.429-3.86-103.472-5.52-153.5-4.391m24.575 19.414c-40.702 7.986-69.149 46.131-64.992 87.15 2.866 28.272 19.652 52.199 45.417 64.738 12.395 6.032 18.887 7.431 34.5 7.431 15.887 0 22.094-1.382 35.5-7.904 20.659-10.05 35.286-27.433 42.074-50.002 2.342-7.788 2.707-10.751 2.707-22 0-11.186-.37-14.229-2.653-21.807-3.131-10.397-6.309-16.998-12.127-25.193-11.203-15.781-29.92-27.937-49.358-32.057-7.26-1.539-24.057-1.731-31.068-.356M1014 1459.5v16.5h-33v33h33v33h33v-33h33v-33h-33v-33h-33v16.5m-506 28.188a34314.98 34314.98 0 01-13.727 4.914l-7.228 2.584 1.5 2.901c2.289 4.427 45.014 48.36 57.955 59.595 23.69 20.566 36.027 30.577 55.5 45.037 102.333 75.992 211.626 120.31 336 136.247 45.234 5.797 105.647 6.995 152.837 3.032 84.208-7.072 171.069-30.902 247.667-67.947 63.789-30.851 115.498-65.01 162.009-107.023 2.756-2.49 8.822-7.903 13.478-12.028 18.768-16.626 43.057-40.923 51.457-51.474 3.053-3.835 5.542-7.21 5.531-7.5-.036-.891-21.592-8.94-25.705-9.598-3.711-.594-4.039-.414-7.702 4.226-2.104 2.665-12.352 13.251-22.773 23.523-16.72 16.481-18.823 18.909-17.894 20.646.918 1.714.12 2.799-6.176 8.394-9.869 8.773-35.724 29.515-49.922 40.051-62.146 46.118-133.016 83.447-202.322 106.567-123.143 41.081-250.861 44.857-374.119 11.061-72.543-19.89-139.899-50.969-211.866-97.758-17.121-11.131-30.856-21.228-54.3-39.915-24.15-19.251-27.287-22.114-56.7-51.756-13.2-13.303-24.675-24.619-25.5-25.147-1.038-.665-3.502-.244-8 1.368m1061.997 43.823c-15.055 13.271-40.997 40.491-40.997 43.016 0 .803 4.714 2.425 12.75 4.387 7.013 1.712 21.3 5.355 31.75 8.094 20.239 5.306 20.896 5.442 20.108 4.166-.577-.933-12.43-46.514-13.697-52.674-.453-2.2-1.407-5.961-2.12-8.358l-1.297-4.358-6.497 5.727m-1088.258-2.761c-.272.963-3.025 10.525-6.118 21.25-3.093 10.725-7.02 24.366-8.726 30.313-1.706 5.947-2.893 11.023-2.637 11.278.395.396 13.911-2.891 36.742-8.934 3.025-.801 8.2-2.003 11.5-2.672 7.182-1.456 16.5-4.809 16.5-5.938 0-.719-45.768-47.047-46.479-47.047-.158 0-.51.787-.782 1.75m829.011 19.99c-8.064 4.415-8.015 4.128-3.316 19.76 1.819 6.05 3.194 11.133 3.057 11.296-.137.163-5.458-3.312-11.823-7.722l-11.574-8.018-6.297 3.538c-10.524 5.915-10.866 2.937 3.756 32.633 7.116 14.45 13.766 27.727 14.78 29.504 1.841 3.229 1.843 3.229 5.004 1.607 1.74-.893 5.549-3.144 8.466-5.002l5.303-3.379-1.931-2.728c-2.436-3.444-14.418-27.32-13.946-27.791.427-.428 17.253 10.225 26.815 16.977 3.828 2.703 7.233 4.642 7.566 4.309.925-.926-6.678-34.532-14.699-64.974-1.248-4.738-2.523-4.739-11.161-.01m-560.154.154c-1.346 1.487-9.596 19.945-9.596 21.469 0 .195 2.475 1.997 5.5 4.006 5.581 3.705 6.166 4.482 4.655 6.181-.465.522-3.894 8.24-7.621 17.15-4.646 11.108-6.591 16.938-6.187 18.548.53 2.112 6.953 6.752 9.346 6.752.975 0 6.683-12.35 12.837-27.777 4.042-10.131 3.554-9.904 9.597-4.454l2.627 2.37 4.623-10.953c2.543-6.024 4.623-11.839 4.623-12.922 0-1.209-2.219-3.705-5.75-6.467-8.135-6.363-21.418-15.797-22.244-15.797-.383 0-1.467.852-2.41 1.894m38.392 36.97c-18.163 37.027-22.32 46.204-21.361 47.163.53.53 4.646 2.307 9.146 3.95l8.183 2.986 1.953-2.096c1.074-1.153 3.668-5.904 5.764-10.558 3.726-8.272 3.878-8.449 6.788-7.867 1.637.328 3.362.981 3.833 1.452.792.792-3.866 10.906-7.99 17.345-1.544 2.411-1.578 2.909-.279 4.157 1.815 1.745 10.177 4.604 13.466 4.604 1.934 0 3.211-1.357 6.35-6.75 5.272-9.057 24.159-50.712 24.159-53.282 0-.715-12.262-7.207-12.565-6.652-.056.101-1.702 2.884-3.658 6.184-1.956 3.3-5.234 9.375-7.284 13.5s-3.854 7.642-4.009 7.816c-.155.173-2.13-.182-4.388-.79l-4.106-1.106 1.602-3.098c2.971-5.745 11.408-25.988 11.408-27.371 0-1.352-2.01-2.089-13.175-4.829l-5.676-1.393-8.161 16.635m467.512-10.132c-4.52 2.362-14.352 9.949-20.197 15.585-4.19 4.039-5.014 5.354-4.25 6.781.521.974.947 5.305.947 9.624 0 4.32.671 13.237 1.492 19.816.821 6.579 1.496 15.675 1.5 20.212.009 9.482-.081 9.419 9.008 6.293 3.673-1.263 5.593-2.498 5.78-3.717.153-1.004-.331-6.247-1.076-11.651l-1.354-9.826 5.075-4.441c6.035-5.281 5.324-5.804 12.807 9.433 2.793 5.687 5.643 10.558 6.333 10.822 2.363.907 13.641-6.152 14.846-9.292.332-.865-3.488-9.595-8.838-20.198-5.183-10.27-10.822-22.273-12.531-26.673-1.709-4.4-3.88-9.425-4.825-11.168-1.696-3.129-1.753-3.149-4.717-1.6m-415.488 18.737c-1.411 3.71-8.213 45.875-8.759 54.294l-.537 8.264 4.392-.133c2.416-.073 9.117.378 14.892 1.003l14.628 1.584c4.102.445 4.131.424 4.663-3.267.294-2.043.462-5.671.372-8.063l-.163-4.349-9.472-.423c-5.209-.232-9.879-.83-10.377-1.328-.497-.497-.602-2.11-.232-3.583.544-2.17 1.09-2.563 2.876-2.072 1.213.333 3.831.877 5.818 1.21l3.612.606 1.138-7.647c1.433-9.636 1.46-9.225-.613-9.216-9.201.04-11.25-.381-11.25-2.314 0-3.103 3.144-4.034 13.684-4.05 5.399-.009 10.306-.346 10.904-.75.71-.48.93-3.921.632-9.899-.53-10.634-.085-10.256-12.22-10.393-4.125-.047-11.035-.407-15.356-.8-7.33-.666-7.909-.577-8.632 1.326m347.555 6.374c-9.336 9.965-17.051 25.103-18.756 36.799-1.014 6.958-.937 9.188.551 15.958 2.053 9.346 4.047 13.074 8.692 16.249 3.058 2.09 4.248 2.298 10.565 1.84 7.87-.569 11.979-2.298 20.402-8.586 5.316-3.967 12.979-13.182 12.979-15.607 0-.658-1.39-3.115-3.09-5.461l-3.09-4.266-3.66 3.506c-6.596 6.317-15.547 9.24-18.34 5.989-4.567-5.315-2.109-12.191 7.894-22.091 7.529-7.452 7.796-8.166 4.186-11.173-.33-.275-1.191-1.625-1.912-3-2.742-5.227-8.936-12.753-10.924-13.273-1.5-.392-3.015.466-5.497 3.116m59.683 1.691c-2.259 1.586-2.741 4.032-1.62 8.216.75 2.796 1.212 2.796 4.527-.005 2.637-2.229 2.644-2.272 1-6.018-1.603-3.649-1.731-3.721-3.907-2.193m-358.19 1.429c-.991.612-2.546 9.176-8.996 49.537-3.055 19.114-3.282 18.083 4.268 19.397 12.253 2.134 11.035 3.529 13.657-15.647 1.26-9.213 2.612-17.112 3.005-17.554.818-.921 6.459 13.973 11.003 29.054 1.699 5.638 3.407 10.25 3.796 10.25.948-.001 10.416-23.035 19.253-46.837 4.894-13.183 6.854-19.663 6.156-20.361-1.131-1.131-11.46-3.762-14.864-3.786-1.785-.013-2.691 1.368-5.183 7.893-1.661 4.349-3.576 9.862-4.256 12.25-.68 2.387-1.579 4.737-1.997 5.221-.419.484-2.819-5.591-5.335-13.5-4.377-13.766-4.69-14.387-7.32-14.543-1.511-.089-4.85-.587-7.42-1.106-2.57-.519-5.166-.64-5.767-.268m84.209 16.01l-4.232 3.766 7.344 12.88 7.343 12.881-.871 17c-.479 9.35-1.073 17.549-1.319 18.221-.986 2.683 2.491 4.279 9.287 4.264 3.674-.009 7.316-.419 8.095-.912 1.077-.682 1.677-5.556 2.5-20.316l1.084-19.419 8.25-8.816c4.538-4.849 8.25-9.351 8.25-10.005 0-1.535-6.743-10.204-8.444-10.857-.754-.29-4.591 3.278-9.137 8.496-6.147 7.056-8.06 8.701-8.877 7.631-10.001-13.092-13.672-17.748-14.292-18.124-.413-.251-2.654 1.239-4.981 3.31m144.815-.441c-3.483 1.861-6.495 3.546-6.694 3.745-.199.199 1.231 4.27 3.179 9.046 6.473 15.879 7.775 28.246 3.39 32.214-1.47 1.331-3.143 1.612-7.45 1.255-12.597-1.044-16.263-11.304-13.481-37.726.777-7.375.718-9.609-.267-10.235-.694-.44-4.259-.807-7.923-.816l-6.662-.015-.661 3.913c-.984 5.821 1.31 41.76 3.055 47.878 2.231 7.82 7.116 12.723 15.146 15.203 14.133 4.365 22.402 2.074 29.188-8.089 5.869-8.788 7.387-14.862 6.945-27.781-.345-10.092-.579-11.08-4.583-19.427-6.598-13.749-5.731-13.146-13.182-9.165m-80.718 1.387c-9.314 5.679-16.377 23.6-16.354 41.491.02 15.473 3.574 23.734 11.706 27.213 4.165 1.782 15.405 1.77 19.693-.021 4.521-1.889 13.555-11.241 16.441-17.019 5.264-10.542 5.159-25.721-.252-36.374-3.223-6.346-10.276-14.176-14.273-15.846-4.804-2.007-13.21-1.732-16.961.556m402.929 20.025c-14.413 9.656-26.982 18.035-27.93 18.621-1.457.9-.297 1.86 7.465 6.179 13.533 7.531 49.885 25.256 51.797 25.256 1.952 0-2.738-66.004-4.788-67.384-.187-.125-12.131 7.672-26.544 17.328m-852.693-10.694c-.681 7.631-3.628 55.363-3.613 58.513.011 2.167.15 2.205 3.261.897 16.616-6.988 55.932-26.707 56.471-28.323.599-1.797-22.997-18.428-46.136-32.517-4.353-2.651-8.255-4.82-8.671-4.82-.415 0-1.006 2.813-1.312 6.25m453.022 16.035c-1.262 1.262-3.098 5.285-4.098 8.981-1.601 5.915-1.65 7.122-.418 10.357 3.124 8.209 10.967 9.502 17.571 2.898 2.935-2.935 3.321-3.943 3.317-8.671-.004-6.314-2.404-10.909-7.237-13.855-4.23-2.579-6.333-2.512-9.135.29m300.291 51.123c-.606.616-28.781 12.29-48.915 20.267-6.325 2.505-11.689 4.73-11.921 4.944-.951.88 5.481 6.364 24.881 21.217 26.119 19.996 27.002 20.602 28.228 19.376 1.888-1.888 9.231-54.569 8.649-62.056-.185-2.389-.6-4.076-.922-3.748m-627.453 3.872c.298 1.771.95 6.595 1.448 10.72 3.653 30.227 6.506 50.636 7.186 51.399.461.516 1.992.128 3.603-.915 6.691-4.33 45.068-33.576 47.706-36.355l2.904-3.061-2.715-1.032c-1.494-.568-4.826-1.915-7.405-2.994-7.096-2.967-45.16-18.056-49.479-19.614l-3.789-1.367.541 3.219M852 1746.956c0 2.602 19.307 59.651 20.659 61.044 1.287 1.325 2.235.683 8.149-5.52 3.68-3.861 8.942-9.683 11.692-12.937 2.75-3.254 8.264-9.689 12.253-14.3 10.275-11.877 12.69-15.218 11.651-16.12-.497-.431-14.179-3.371-30.404-6.532s-30.513-5.986-31.75-6.277c-1.355-.32-2.25-.065-2.25.642m326 4.119c-13.475 2.694-27.533 5.419-31.24 6.056l-6.739 1.159 3.513 4.89c1.932 2.69 4.566 6.112 5.853 7.605 10.818 12.552 24.465 27.839 29.652 33.215l6.272 6.5 9.705-29.5c11.744-35.698 11.566-35.027 9.253-34.911-.973.049-12.794 2.292-26.269 4.986m-183 15.775c0 .991 17.333 32.164 21.64 38.919 1.848 2.899 3.36 5.491 3.36 5.762 0 .38 7.047 11.237 8.695 13.396.669.877 9.34-12.422 15.6-23.927 1.646-3.025 3.327-5.95 3.734-6.5 1.59-2.144 10.784-19.253 12.775-23.772l2.103-4.773-33.953.071c-18.675.039-33.954.41-33.954.824" fill="undefined" fill-rule="evenodd"/></svg>